<?xml version="1.0" encoding="UTF-8" standalone="no"?>
<svg xmlns:xlink="http://www.w3.org/1999/xlink" xmlns="http://www.w3.org/2000/svg" xmlns:svg="http://www.w3.org/2000/svg" width="600" height="600" viewBox="0 0 158.75 158.75" version="1.1" id="svg1" xml:space="preserve">
  <defs id="defs1">
    <linearGradient id="linearGradient49">
      <stop style="stop-color:#421961;stop-opacity:1;" offset="0" id="stop49"></stop>
      <stop style="stop-color:#a9323b;stop-opacity:1;" offset="1" id="stop50"></stop>
    </linearGradient>
    <linearGradient id="linearGradient47">
      <stop style="stop-color:#ff00ff;stop-opacity:1;" offset="0" id="stop47"></stop>
      <stop style="stop-color:#ff00ff;stop-opacity:0;" offset="1" id="stop48"></stop>
    </linearGradient>
    <linearGradient xlink:href="#linearGradient49" id="linearGradient53" gradientUnits="userSpaceOnUse" gradientTransform="translate(334.62489,-22.592475)" x1="103.03786" y1="184.36929" x2="103.03786" y2="51.309528"></linearGradient>
  </defs>
  <g id="layer3" transform="translate(-331.8143)">
    <rect style="display:inline;opacity:1;fill:#ffffff;fill-opacity:1;fill-rule:nonzero;stroke:#000000;stroke-width:0" id="rect54" width="158.91145" height="158.91142" x="359.55444" y="17.298365" rx="36.200001" transform="translate(-27.740134,-17.298365)"></rect>
    <path style="display:inline;mix-blend-mode:normal;fill:url(#linearGradient53);fill-rule:nonzero;stroke-width:0.996039" d="m 371.17215,107.10849 0.0393,-46.671999 13.64003,-0.0417 c 9.94814,-0.0304 13.69746,0.008 13.85217,0.14225 0.17758,0.15396 0.21213,5.87681 0.21213,35.136854 v 34.952945 l 36.95212,0.0411 36.95213,0.0411 v 11.4947 11.49469 l -50.84358,0.041 -50.84358,0.041 z m 108.28129,12.83959 V 86.116152 h 12.33039 12.33038 l 0.012,33.546588 c 0.007,18.45064 0.0355,33.675 0.0642,33.83192 0.0494,0.26981 -0.62207,0.28534 -12.34232,0.28534 h -12.39462 z m -52.97007,8.10344 c -0.0475,-0.0803 -0.82301,-0.18953 -1.72337,-0.24279 -1.67635,-0.0992 -4.47737,-0.56139 -4.61724,-0.76194 -0.0429,-0.0616 -0.42922,-0.21068 -0.85845,-0.33141 -4.77219,-1.34235 -9.62754,-6.27709 -11.23416,-11.41788 -0.15349,-0.49114 -0.33042,-0.96636 -0.39318,-1.05603 -0.11328,-0.16186 -0.52482,-1.92219 -0.70519,-3.01633 -0.0517,-0.31387 -0.15662,-0.71741 -0.23309,-0.89676 -0.46455,-1.08968 -0.52562,-3.87602 -0.58154,-26.535629 l -0.0566,-22.94864 12.22081,-10e-6 12.22081,-1e-5 -0.0405,19.28013 c -0.0223,10.604084 0.007,19.390194 0.0643,19.524694 0.0577,0.13451 0.22455,0.951595 0.37085,1.815735 0.73848,4.36201 3.42734,6.65696 7.79954,6.65696 1.67033,0 3.31493,-0.35798 4.08257,-0.88866 0.32625,-0.22552 0.66234,-0.41005 0.74688,-0.41005 0.34699,0 2.20484,-2.03764 2.78981,-3.05984 1.93808,-3.38657 2.0406,-4.666995 2.06566,-25.799179 0.0106,-8.92266 0.0565,-16.42524 0.10209,-16.6724 l 0.0829,-0.44937 12.03886,0.0418 12.03886,0.0418 v 32.772134 32.772125 h -11.31585 -11.31586 l -0.0781,-5.07728 -0.0781,-5.07727 -1.01453,1.2082 c -1.55383,1.85045 -3.37801,3.8104 -3.54644,3.8104 -0.0831,0 -0.28491,0.15598 -0.44845,0.34662 -1.48903,1.73579 -5.5357,4.20684 -8.10136,4.94696 -0.51507,0.14858 -1.07696,0.33815 -1.24866,0.42126 -0.56748,0.27468 -3.09219,0.656 -4.99457,0.75433 -1.03013,0.0533 -1.94321,0.14957 -2.02905,0.21407 -0.23237,0.17458 -1.90978,0.20323 -2.00971,0.0344 z m 52.97007,-58.726529 v -8.97002 h 12.33039 12.33038 v 8.96102 8.961021 l -12.33038,0.009 -12.33039,0.009 z M 371.21887,55.498551 c -0.047,-0.0491 -0.0855,-4.295859 -0.0855,-9.437231 v -9.34793 h 66.49039 66.49043 v 9.37511 9.375111 l -48.1119,0.006 c -26.46154,0.003 -56.34377,0.0311 -66.40494,0.0621 -10.06117,0.031 -18.3315,0.0162 -18.37851,-0.0329 z M 441.0995,50.67328 c 0.39374,-0.12378 0.92495,-0.38058 1.18049,-0.570659 0.57228,-0.42568 0.65055,-0.42919 0.65055,-0.0291 0,0.472 0.20258,0.53436 1.81752,0.559449 1.4155,0.022 1.47211,0.009 1.36575,-0.3042 -0.0611,-0.17993 -0.15255,-1.550829 -0.20337,-3.04645 -0.0823,-2.42201 -0.12831,-2.769599 -0.42088,-3.17939 -1.48693,-2.082689 -7.71046,-2.01223 -9.07486,0.10274 -0.67627,1.04831 -0.56497,1.14916 1.2682,1.14916 h 1.61992 l 0.1884,-0.47515 c 0.4848,-1.22265 3.12716,-1.084679 3.12716,0.16328 0,0.685021 -0.41636,0.83213 -2.97565,1.051421 -3.21854,0.275759 -3.8919,0.69433 -3.8919,2.419229 0,1.90018 2.7028,2.991532 5.34867,2.1597 z m -1.568,-1.65921 c -0.89868,-0.65755 -0.45814,-1.16466 1.25365,-1.4431 0.70783,-0.11513 1.40987,-0.26518 1.56009,-0.33345 0.21852,-0.0993 0.27314,-0.0435 0.27314,0.27895 0,1.21822 -2.08574,2.23011 -3.08688,1.4976 z m 14.96129,1.71879 c 1.90277,-0.37695 2.79552,-1.21797 2.79661,-2.63455 9.9e-4,-1.59691 -1.4882,-2.41743 -4.38819,-2.41743 -1.12515,0 -1.69839,-0.21564 -1.69839,-0.6389 0,-0.96805 1.78365,-1.14593 2.58545,-0.25785 0.68796,0.76201 3.34563,0.91068 3.34563,0.18716 0,-2.97578 -8.12922,-3.2732 -9.05862,-0.33142 -0.59138,1.87184 0.66,2.89263 3.78996,3.0916 1.818,0.11557 2.14704,0.22774 2.14704,0.7319 0,0.91615 -1.92742,1.12719 -2.67361,0.29275 -0.84961,-0.95009 -3.75363,-0.75304 -3.3612,0.22808 0.62058,1.55155 3.54643,2.336821 6.51532,1.74866 z m -23.30548,-0.71364 c 3.56219,-1.71852 3.76453,-7.08356 0.33607,-8.91068 -1.30448,-0.6952 -2.19076,-0.80815 -6.34079,-0.80815 h -3.94726 v 5.147121 5.14712 l 4.48732,-0.052 4.48732,-0.0519 z m -6.4492,-1.93996 c -0.0425,-0.11569 -0.0579,-1.38133 -0.0341,-2.81253 l 0.0431,-2.60219 1.81168,0.004 c 3.49321,0.007 5.16048,2.94997 2.7565,4.86539 -0.85872,0.6842 -4.37244,1.10306 -4.5772,0.54563 z" id="path1-5-4" transform="translate(-27.740134,-17.298365)"></path>
  </g>
</svg>
